<?xml version="1.0" encoding="UTF-8" standalone="no"?>
<!-- Created with Inkscape (http://www.inkscape.org/) -->

<svg
   xmlns:dc="http://purl.org/dc/elements/1.1/"
   xmlns:cc="http://creativecommons.org/ns#"
   xmlns:rdf="http://www.w3.org/1999/02/22-rdf-syntax-ns#"
   xmlns:svg="http://www.w3.org/2000/svg"
   xmlns="http://www.w3.org/2000/svg"
   xmlns:xlink="http://www.w3.org/1999/xlink"
   xmlns:sodipodi="http://sodipodi.sourceforge.net/DTD/sodipodi-0.dtd"
   xmlns:inkscape="http://www.inkscape.org/namespaces/inkscape"
   width="744.09448819"
   height="1052.3622047"
   id="svg2"
   version="1.1"
   inkscape:version="0.48.2 r9819"
   sodipodi:docname="EBT-Install-Icon.svg"
   inkscape:export-filename="/Users/jstroud/Desktop/EBT-Dock-Icon.png"
   inkscape:export-xdpi="72.349998"
   inkscape:export-ydpi="72.349998">
  <defs
     id="defs4">
    <linearGradient
       id="linearGradient3792">
      <stop
         id="stop3794"
         offset="0"
         style="stop-color:#ffffff;stop-opacity:1;" />
      <stop
         id="stop3796"
         offset="1"
         style="stop-color:#ffffff;stop-opacity:0;" />
    </linearGradient>
    <linearGradient
       id="linearGradient3007">
      <stop
         style="stop-color:#0000ff;stop-opacity:1;"
         offset="0"
         id="stop3009" />
      <stop
         id="stop3798"
         offset="0.49472919"
         style="stop-color:#5353ff;stop-opacity:1;" />
      <stop
         style="stop-color:#0000ff;stop-opacity:1;"
         offset="1"
         id="stop3011" />
    </linearGradient>
    <linearGradient
       id="linearGradient3885">
      <stop
         id="stop3887"
         offset="0"
         style="stop-color:#ffffff;stop-opacity:1;" />
      <stop
         id="stop3889"
         offset="1"
         style="stop-color:#ffffff;stop-opacity:0;" />
    </linearGradient>
    <linearGradient
       id="linearGradient3843">
      <stop
         style="stop-color:#009999;stop-opacity:1;"
         offset="0"
         id="stop3845" />
      <stop
         style="stop-color:#009999;stop-opacity:0.27102804;"
         offset="1"
         id="stop3847" />
    </linearGradient>
    <linearGradient
       inkscape:collect="always"
       xlink:href="#linearGradient3843"
       id="linearGradient3849"
       x1="367.78983"
       y1="275.17123"
       x2="370.47443"
       y2="707.39136"
       gradientUnits="userSpaceOnUse"
       gradientTransform="translate(4.0268961,-8.0537922)" />
    <linearGradient
       inkscape:collect="always"
       xlink:href="#linearGradient3885"
       id="linearGradient3883"
       x1="359.73602"
       y1="154.36435"
       x2="363.76297"
       y2="468.46222"
       gradientUnits="userSpaceOnUse"
       gradientTransform="translate(4.0268961,-8.0537922)" />
    <filter
       id="filter3933"
       inkscape:label="Drop shadow"
       width="1.5"
       height="1.5"
       x="-.25"
       y="-.25">
      <feGaussianBlur
         id="feGaussianBlur3935"
         in="SourceAlpha"
         stdDeviation="4"
         result="blur" />
      <feColorMatrix
         id="feColorMatrix3937"
         result="bluralpha"
         type="matrix"
         values="1 0 0 0 0 0 1 0 0 0 0 0 1 0 0 0 0 0 0.55 0 " />
      <feOffset
         id="feOffset3939"
         in="bluralpha"
         dx="6"
         dy="6"
         result="offsetBlur" />
      <feMerge
         id="feMerge3941">
        <feMergeNode
           id="feMergeNode3943"
           in="offsetBlur" />
        <feMergeNode
           id="feMergeNode3945"
           in="SourceGraphic" />
      </feMerge>
    </filter>
    <linearGradient
       inkscape:collect="always"
       xlink:href="#linearGradient3007"
       id="linearGradient3017"
       gradientUnits="userSpaceOnUse"
       gradientTransform="matrix(1,0,0,1.131749,902.02474,-91.673037)"
       x1="-566.49957"
       y1="539.60406"
       x2="-343.54587"
       y2="536.91949" />
    <linearGradient
       inkscape:collect="always"
       xlink:href="#linearGradient3792"
       id="linearGradient3022"
       gradientUnits="userSpaceOnUse"
       gradientTransform="matrix(-1,0,0,1,-1040.166,-25.503676)"
       x1="-387.58994"
       y1="550.34247"
       x2="-464.41769"
       y2="551.68475" />
    <filter
       id="filter3800"
       inkscape:label="Drop shadow"
       width="1.5"
       height="1.5"
       x="-.25"
       y="-.25">
      <feGaussianBlur
         id="feGaussianBlur3802"
         in="SourceAlpha"
         stdDeviation="2"
         result="blur" />
      <feColorMatrix
         id="feColorMatrix3804"
         result="bluralpha"
         type="matrix"
         values="1 0 0 0 0 0 1 0 0 0 0 0 1 0 0 0 0 0 0.5 0 " />
      <feOffset
         id="feOffset3806"
         in="bluralpha"
         dx="4"
         dy="4"
         result="offsetBlur" />
      <feMerge
         id="feMerge3808">
        <feMergeNode
           id="feMergeNode3810"
           in="offsetBlur" />
        <feMergeNode
           id="feMergeNode3812"
           in="SourceGraphic" />
      </feMerge>
    </filter>
  </defs>
  <sodipodi:namedview
     id="base"
     pagecolor="#ffffff"
     bordercolor="#666666"
     borderopacity="1.0"
     inkscape:pageopacity="0.0"
     inkscape:pageshadow="2"
     inkscape:zoom="0.74499066"
     inkscape:cx="-105.8111"
     inkscape:cy="747.84918"
     inkscape:document-units="px"
     inkscape:current-layer="layer1"
     showgrid="false"
     inkscape:window-width="1763"
     inkscape:window-height="956"
     inkscape:window-x="94"
     inkscape:window-y="53"
     inkscape:window-maximized="0" />
  <metadata
     id="metadata7">
    <rdf:RDF>
      <cc:Work
         rdf:about="">
        <dc:format>image/svg+xml</dc:format>
        <dc:type
           rdf:resource="http://purl.org/dc/dcmitype/StillImage" />
        <dc:title></dc:title>
      </cc:Work>
    </rdf:RDF>
  </metadata>
  <g
     inkscape:label="Layer 1"
     inkscape:groupmode="layer"
     id="layer1">
    <rect
       style="fill:none;stroke:none"
       id="rect3829"
       width="454.55835"
       height="454.55835"
       x="136.036"
       y="196.65569"
       ry="51.70332"
       inkscape:export-filename="/Users/jstroud/Code/ebtcoin/EBT-Images/EBT-Install-Icon.png"
       inkscape:export-xdpi="101.37"
       inkscape:export-ydpi="101.37" />
    <path
       style="fill:url(#linearGradient3849);fill-opacity:1;filter:url(#filter3933)"
       d="m 346.20582,635.63118 c -23.81582,-2.00343 -45.37284,-7.39291 -68.32375,-17.08166 -3.91619,-1.65323 -5.18461,-2.66676 -4.79746,-3.83345 4.19913,-12.65452 4.73949,-15.85736 4.31669,-25.58603 -0.48228,-11.09711 -2.70051,-18.41098 -8.18887,-27 -13.52406,-21.16451 -39.37791,-30.58302 -63.20499,-23.02545 -4.29089,1.361 -9.46525,3.611 -11.49857,5 -2.03332,1.389 -3.9549,2.52545 -4.27019,2.52545 -1.31892,0 -11.19886,-16.45998 -17.4524,-29.07572 -36.07987,-72.78659 -26.69049,-162.0235 23.71884,-225.42428 59.43843,-74.75686 162.45067,-101.04954 249.9215,-63.78957 l 8.2208,3.50182 -1.47084,2.84429 c -0.80896,1.56437 -2.13917,5.67911 -2.95602,9.14388 -5.12081,21.72058 3.51769,44.15865 22.10799,57.42441 9.93342,7.08834 18.59972,9.8025 31.37727,9.82692 11.77537,0.0225 19.94882,-2.13088 28.37802,-7.47651 l 4.6608,-2.95582 4.9858,7.74029 c 53.9605,83.77273 42.4782,194.28799 -27.5158,264.83629 -17.32765,17.46486 -34.00941,29.6009 -55.50882,40.38286 -34.44174,17.27254 -74.87455,25.18741 -112.5,22.02228 z M 330.00263,533.14095 c 12.71349,-3.31144 25.78523,-12.7302 32.76664,-23.60979 20.48608,-31.92478 3.3048,-74.08642 -34.02562,-83.49652 -13.07149,-3.295 -29.84431,-0.42801 -41.63993,7.11756 -24.77876,15.85079 -32.85836,46.78763 -19.05919,72.97784 6.4434,12.2293 20.30924,23.14495 34.26935,26.97798 6.65675,1.82775 20.7337,1.84449 27.68875,0.0329 z m 97.96692,-112.97416 c 9.05446,-3.14039 15.43854,-7.39461 22.62475,-15.07669 20.69844,-22.1267 19.51252,-55.44881 -2.73898,-76.96006 -10.63498,-10.28119 -22.41667,-14.96339 -37.6495,-14.96241 -10.99573,7e-4 -16.68068,1.43947 -26.91443,6.8116 -7.48746,3.93049 -17.33133,13.82042 -21.45289,21.55326 -3.72351,6.98601 -7.14003,19.47391 -7.11532,26.00751 0.0496,13.12095 5.73205,27.46501 14.73073,37.18466 6.70035,7.23718 12.35588,11.27506 20.33064,14.5155 12.05174,4.89706 25.77702,5.23013 38.185,0.92663 z"
       id="path3827"
       inkscape:connector-curvature="0" />
    <path
       style="fill:url(#linearGradient3883);fill-opacity:1;stroke:none"
       d="m 367.12065,220.13371 c -93.77838,0 -169.8125,57.39038 -169.8125,128.1875 0,43.02645 28.07739,81.09335 71.15625,104.34375 4.34664,-7.63848 10.58816,-14.35889 18.625,-19.5 11.79562,-7.54557 28.58476,-10.42 41.65625,-7.125 25.13868,6.33686 41.11052,27.52397 42.625,50.4375 91.8109,-1.70585 165.5625,-58.43373 165.5625,-128.15625 0,-14.76366 -3.3227,-28.92609 -9.40625,-42.125 -6.93757,3.46645 -14.15877,4.89345 -23.8125,4.875 -12.77755,-0.0244 -21.44158,-2.72416 -31.375,-9.8125 -18.5903,-13.26576 -27.24581,-35.71692 -22.125,-57.4375 0.51603,-2.18882 1.24131,-4.56801 1.90625,-6.46875 -24.99766,-10.93361 -54.03125,-17.21875 -85,-17.21875 z m 43.09375,93.03125 c 15.23283,-9.8e-4 27.02127,4.68756 37.65625,14.96875 22.2515,21.51125 23.41719,54.84205 2.71875,76.96875 -7.18621,7.68208 -13.57054,11.92211 -22.625,15.0625 -12.40798,4.3035 -26.13576,3.95956 -38.1875,-0.9375 -7.97476,-3.24044 -13.61215,-7.26282 -20.3125,-14.5 -8.99868,-9.71965 -14.7004,-24.06655 -14.75,-37.1875 -0.0247,-6.5336 3.40149,-19.01399 7.125,-26 4.12156,-7.73284 13.95004,-17.63201 21.4375,-21.5625 10.23375,-5.37213 15.94177,-6.8118 26.9375,-6.8125 z"
       id="path3851"
       inkscape:connector-curvature="0"
       inkscape:export-filename="/Users/jstroud/Code/ebtcoin/EBT-Images/EBT-Install-Icon.png"
       inkscape:export-xdpi="101.37"
       inkscape:export-ydpi="101.37" />
    <path
       inkscape:connector-curvature="0"
       id="path3015"
       d="m 418.36849,199.9999 c -2.36414,0 -4.28125,2.16969 -4.28125,4.8453 l 0,310.38217 -38.375,0 68.59375,134.46593 68.59375,-134.46593 -38.40625,0 0,-310.38217 c 0,-2.67561 -1.88586,-4.8453 -4.25,-4.8453 l -51.875,0 z"
       style="fill:url(#linearGradient3017);fill-opacity:1;fill-rule:evenodd;stroke:none;filter:url(#filter3800)"
       transform="matrix(1,0,0,0.9626885,8.0537922,15.516088)" />
  </g>
</svg>
