<?xml version="1.0" encoding="UTF-8" standalone="no"?>
<!-- Created with Inkscape (http://www.inkscape.org/) -->

<svg
   xmlns:dc="http://purl.org/dc/elements/1.1/"
   xmlns:cc="http://creativecommons.org/ns#"
   xmlns:rdf="http://www.w3.org/1999/02/22-rdf-syntax-ns#"
   xmlns:svg="http://www.w3.org/2000/svg"
   xmlns="http://www.w3.org/2000/svg"
   xmlns:xlink="http://www.w3.org/1999/xlink"
   xmlns:sodipodi="http://sodipodi.sourceforge.net/DTD/sodipodi-0.dtd"
   xmlns:inkscape="http://www.inkscape.org/namespaces/inkscape"
   width="744.09448819"
   height="1052.3622047"
   id="svg2"
   version="1.1"
   inkscape:version="0.48.2 r9819"
   sodipodi:docname="EBT-Dock-Icon.svg"
   inkscape:export-filename="/Users/jstroud/Desktop/EBT-Dock-Icon.png"
   inkscape:export-xdpi="72.349998"
   inkscape:export-ydpi="72.349998">
  <defs
     id="defs4">
    <linearGradient
       id="linearGradient3885">
      <stop
         id="stop3887"
         offset="0"
         style="stop-color:#ffffff;stop-opacity:1;" />
      <stop
         id="stop3889"
         offset="1"
         style="stop-color:#ffffff;stop-opacity:0;" />
    </linearGradient>
    <linearGradient
       id="linearGradient3843">
      <stop
         style="stop-color:#009999;stop-opacity:1;"
         offset="0"
         id="stop3845" />
      <stop
         style="stop-color:#009999;stop-opacity:0.27102804;"
         offset="1"
         id="stop3847" />
    </linearGradient>
    <linearGradient
       inkscape:collect="always"
       xlink:href="#linearGradient3843"
       id="linearGradient3849"
       x1="367.78983"
       y1="275.17123"
       x2="370.47443"
       y2="707.39136"
       gradientUnits="userSpaceOnUse" />
    <linearGradient
       inkscape:collect="always"
       xlink:href="#linearGradient3885"
       id="linearGradient3883"
       x1="359.73602"
       y1="154.36435"
       x2="363.76297"
       y2="468.46222"
       gradientUnits="userSpaceOnUse" />
    <filter
       id="filter3933"
       inkscape:label="Drop shadow"
       width="1.5"
       height="1.5"
       x="-.25"
       y="-.25">
      <feGaussianBlur
         id="feGaussianBlur3935"
         in="SourceAlpha"
         stdDeviation="4"
         result="blur" />
      <feColorMatrix
         id="feColorMatrix3937"
         result="bluralpha"
         type="matrix"
         values="1 0 0 0 0 0 1 0 0 0 0 0 1 0 0 0 0 0 0.55 0 " />
      <feOffset
         id="feOffset3939"
         in="bluralpha"
         dx="6"
         dy="6"
         result="offsetBlur" />
      <feMerge
         id="feMerge3941">
        <feMergeNode
           id="feMergeNode3943"
           in="offsetBlur" />
        <feMergeNode
           id="feMergeNode3945"
           in="SourceGraphic" />
      </feMerge>
    </filter>
  </defs>
  <sodipodi:namedview
     id="base"
     pagecolor="#ffffff"
     bordercolor="#666666"
     borderopacity="1.0"
     inkscape:pageopacity="0.0"
     inkscape:pageshadow="2"
     inkscape:zoom="0.74499066"
     inkscape:cx="133.11807"
     inkscape:cy="526.18109"
     inkscape:document-units="px"
     inkscape:current-layer="layer1"
     showgrid="false"
     inkscape:window-width="1763"
     inkscape:window-height="956"
     inkscape:window-x="94"
     inkscape:window-y="53"
     inkscape:window-maximized="0" />
  <metadata
     id="metadata7">
    <rdf:RDF>
      <cc:Work
         rdf:about="">
        <dc:format>image/svg+xml</dc:format>
        <dc:type
           rdf:resource="http://purl.org/dc/dcmitype/StillImage" />
        <dc:title></dc:title>
      </cc:Work>
    </rdf:RDF>
  </metadata>
  <g
     inkscape:label="Layer 1"
     inkscape:groupmode="layer"
     id="layer1">
    <rect
       style="fill:none;stroke:none;stroke-opacity:1;stroke-width:1;stroke-miterlimit:4;stroke-dasharray:none;fill-opacity:1"
       id="rect3829"
       width="454.55835"
       height="454.55835"
       x="132.00909"
       y="204.70947"
       ry="51.70332"
       inkscape:export-filename="/Users/jstroud/Code/ebtcoin/EBT-Images/EBT-Dock-Icon.png"
       inkscape:export-xdpi="101.37"
       inkscape:export-ydpi="101.37" />
    <path
       style="fill:url(#linearGradient3849);fill-opacity:1;filter:url(#filter3933)"
       d="m 342.17892,643.68497 c -23.81582,-2.00343 -45.37284,-7.39291 -68.32375,-17.08166 -3.91619,-1.65323 -5.18461,-2.66676 -4.79746,-3.83345 4.19913,-12.65452 4.73949,-15.85736 4.31669,-25.58603 -0.48228,-11.09711 -2.70051,-18.41098 -8.18887,-27 -13.52406,-21.16451 -39.37791,-30.58302 -63.20499,-23.02545 -4.29089,1.361 -9.46525,3.611 -11.49857,5 -2.03332,1.389 -3.9549,2.52545 -4.27019,2.52545 -1.31892,0 -11.19886,-16.45998 -17.4524,-29.07572 -36.07987,-72.78659 -26.69049,-162.0235 23.71884,-225.42428 59.43843,-74.75686 162.45067,-101.04954 249.9215,-63.78957 l 8.2208,3.50182 -1.47084,2.84429 c -0.80896,1.56437 -2.13917,5.67911 -2.95602,9.14388 -5.12081,21.72058 3.51769,44.15865 22.10799,57.42441 9.93342,7.08834 18.59972,9.8025 31.37727,9.82692 11.77537,0.0225 19.94882,-2.13088 28.37802,-7.47651 l 4.6608,-2.95582 4.9858,7.74029 c 53.9605,83.77273 42.4782,194.28799 -27.5158,264.83629 -17.32765,17.46486 -34.00941,29.6009 -55.50882,40.38286 -34.44174,17.27254 -74.87455,25.18741 -112.5,22.02228 z M 325.97573,541.19474 c 12.71349,-3.31144 25.78523,-12.7302 32.76664,-23.60979 20.48608,-31.92478 3.3048,-74.08642 -34.02562,-83.49652 -13.07149,-3.295 -29.84431,-0.42801 -41.63993,7.11756 -24.77876,15.85079 -32.85836,46.78763 -19.05919,72.97784 6.4434,12.2293 20.30924,23.14495 34.26935,26.97798 6.65675,1.82775 20.7337,1.84449 27.68875,0.0329 z m 97.96692,-112.97416 c 9.05446,-3.14039 15.43854,-7.39461 22.62475,-15.07669 20.69844,-22.1267 19.51252,-55.44881 -2.73898,-76.96006 -10.63498,-10.28119 -22.41667,-14.96339 -37.6495,-14.96241 -10.99573,7e-4 -16.68068,1.43947 -26.91443,6.8116 -7.48746,3.93049 -17.33133,13.82042 -21.45289,21.55326 -3.72351,6.98601 -7.14003,19.47391 -7.11532,26.00751 0.0496,13.12095 5.73205,27.46501 14.73073,37.18466 6.70035,7.23718 12.35588,11.27506 20.33064,14.5155 12.05174,4.89706 25.77702,5.23013 38.185,0.92663 z"
       id="path3827"
       inkscape:connector-curvature="0" />
    <path
       style="fill:url(#linearGradient3883);fill-opacity:1;stroke:none"
       d="M 363.09375 228.1875 C 269.31537 228.1875 193.28125 285.57788 193.28125 356.375 C 193.28125 399.40145 221.35864 437.46835 264.4375 460.71875 C 268.78414 453.08027 275.02566 446.35986 283.0625 441.21875 C 294.85812 433.67318 311.64726 430.79875 324.71875 434.09375 C 349.85743 440.43061 365.82927 461.61772 367.34375 484.53125 C 459.15465 482.8254 532.90625 426.09752 532.90625 356.375 C 532.90625 341.61134 529.58355 327.44891 523.5 314.25 C 516.56243 317.71645 509.34123 319.14345 499.6875 319.125 C 486.90995 319.10058 478.24592 316.40084 468.3125 309.3125 C 449.7222 296.04674 441.06669 273.59558 446.1875 251.875 C 446.70353 249.68618 447.42881 247.30699 448.09375 245.40625 C 423.09609 234.47264 394.0625 228.1875 363.09375 228.1875 z M 406.1875 321.21875 C 421.42033 321.21777 433.20877 325.90631 443.84375 336.1875 C 466.09525 357.69875 467.26094 391.02955 446.5625 413.15625 C 439.37629 420.83833 432.99196 425.07836 423.9375 428.21875 C 411.52952 432.52225 397.80174 432.17831 385.75 427.28125 C 377.77524 424.04081 372.13785 420.01843 365.4375 412.78125 C 356.43882 403.0616 350.7371 388.7147 350.6875 375.59375 C 350.66279 369.06015 354.08899 356.57976 357.8125 349.59375 C 361.93406 341.86091 371.76254 331.96174 379.25 328.03125 C 389.48375 322.65912 395.19177 321.21945 406.1875 321.21875 z "
       id="path3851" />
  </g>
</svg>
